<region> sample=$VELOCITY/JapaneseSmallGrand_$VELOCITY_21.wav pitch_keycenter=21 lokey=0 hikey=21
<region> sample=$VELOCITY/JapaneseSmallGrand_$VELOCITY_24.wav pitch_keycenter=24 lokey=22 hikey=24
<region> sample=$VELOCITY/JapaneseSmallGrand_$VELOCITY_27.wav pitch_keycenter=27 lokey=25 hikey=27
<region> sample=$VELOCITY/JapaneseSmallGrand_$VELOCITY_30.wav pitch_keycenter=30 lokey=28 hikey=30
<region> sample=$VELOCITY/JapaneseSmallGrand_$VELOCITY_33.wav pitch_keycenter=33 lokey=31 hikey=33
<region> sample=$VELOCITY/JapaneseSmallGrand_$VELOCITY_36.wav pitch_keycenter=36 lokey=34 hikey=36
<region> sample=$VELOCITY/JapaneseSmallGrand_$VELOCITY_39.wav pitch_keycenter=39 lokey=37 hikey=39
<region> sample=$VELOCITY/JapaneseSmallGrand_$VELOCITY_42.wav pitch_keycenter=42 lokey=40 hikey=42
<region> sample=$VELOCITY/JapaneseSmallGrand_$VELOCITY_45.wav pitch_keycenter=45 lokey=43 hikey=45
<region> sample=$VELOCITY/JapaneseSmallGrand_$VELOCITY_48.wav pitch_keycenter=48 lokey=46 hikey=48
<region> sample=$VELOCITY/JapaneseSmallGrand_$VELOCITY_51.wav pitch_keycenter=51 lokey=49 hikey=51
<region> sample=$VELOCITY/JapaneseSmallGrand_$VELOCITY_54.wav pitch_keycenter=54 lokey=52 hikey=54
<region> sample=$VELOCITY/JapaneseSmallGrand_$VELOCITY_57.wav pitch_keycenter=57 lokey=55 hikey=57
<region> sample=$VELOCITY/JapaneseSmallGrand_$VELOCITY_60.wav pitch_keycenter=60 lokey=58 hikey=60
<region> sample=$VELOCITY/JapaneseSmallGrand_$VELOCITY_63.wav pitch_keycenter=63 lokey=61 hikey=63
<region> sample=$VELOCITY/JapaneseSmallGrand_$VELOCITY_66.wav pitch_keycenter=66 lokey=64 hikey=66
<region> sample=$VELOCITY/JapaneseSmallGrand_$VELOCITY_69.wav pitch_keycenter=69 lokey=67 hikey=69
<region> sample=$VELOCITY/JapaneseSmallGrand_$VELOCITY_72.wav pitch_keycenter=72 lokey=70 hikey=72
<region> sample=$VELOCITY/JapaneseSmallGrand_$VELOCITY_75.wav pitch_keycenter=75 lokey=73 hikey=75
<region> sample=$VELOCITY/JapaneseSmallGrand_$VELOCITY_78.wav pitch_keycenter=78 lokey=76 hikey=78
<region> sample=$VELOCITY/JapaneseSmallGrand_$VELOCITY_81.wav pitch_keycenter=81 lokey=79 hikey=81
<region> sample=$VELOCITY/JapaneseSmallGrand_$VELOCITY_84.wav pitch_keycenter=84 lokey=82 hikey=84
<region> sample=$VELOCITY/JapaneseSmallGrand_$VELOCITY_87.wav pitch_keycenter=87 lokey=85 hikey=87
<region> sample=$VELOCITY/JapaneseSmallGrand_$VELOCITY_90.wav pitch_keycenter=90 lokey=88 hikey=89

<region> sample=$VELOCITY/JapaneseSmallGrand_$VELOCITY_90.wav pitch_keycenter=90 lokey=90 hikey=90 loop_mode=one_shot
<region> sample=$VELOCITY/JapaneseSmallGrand_$VELOCITY_93.wav pitch_keycenter=93 lokey=91 hikey=93 loop_mode=one_shot
<region> sample=$VELOCITY/JapaneseSmallGrand_$VELOCITY_96.wav pitch_keycenter=96 lokey=94 hikey=96 loop_mode=one_shot
<region> sample=$VELOCITY/JapaneseSmallGrand_$VELOCITY_99.wav pitch_keycenter=99 lokey=97 hikey=99 loop_mode=one_shot
<region> sample=$VELOCITY/JapaneseSmallGrand_$VELOCITY_102.wav pitch_keycenter=102 lokey=100 hikey=102 loop_mode=one_shot
<region> sample=$VELOCITY/JapaneseSmallGrand_$VELOCITY_105.wav pitch_keycenter=105 lokey=103 hikey=105 loop_mode=one_shot
<region> sample=$VELOCITY/JapaneseSmallGrand_$VELOCITY_108.wav pitch_keycenter=108 lokey=106 hikey=127 loop_mode=one_shot